<svg viewBox="0 0 68 24" fill="none" xmlns="http://www.w3.org/2000/svg"><path d="M55.748 23.533a.182.182 0 01-.182-.182V1.411c0-.087.06-.161.145-.179L59.514.44a.182.182 0 01.22.179V23.35c0 .1-.082.182-.183.182h-3.803zM7.944 23.997c-1.52 0-2.876-.371-4.07-1.114-1.193-.743-2.138-1.76-2.832-3.05C.347 18.545 0 17.08 0 15.442c0-1.64.347-3.093 1.042-4.36.694-1.29 1.639-2.295 2.832-3.016 1.194-.743 2.55-1.115 4.07-1.115 1.216 0 2.28.23 3.19.688A5.78 5.78 0 0112.993 9.1c.115.138.357.06.357-.12V1.017c0-.087.06-.161.145-.179l3.803-.791a.182.182 0 01.219.178v23.198c0 .1-.082.182-.182.182h-3.38a.182.182 0 01-.178-.147l-.347-1.769c-.03-.156-.236-.203-.337-.08-.486.585-1.095 1.109-1.827 1.57-.847.546-1.954.82-3.321.82zm.88-3.671c1.345 0 2.44-.448 3.287-1.345.869-.918 1.303-2.087 1.303-3.507 0-1.421-.434-2.58-1.303-3.475-.846-.918-1.942-1.377-3.288-1.377-1.324 0-2.42.448-3.288 1.344-.868.896-1.303 2.054-1.303 3.475 0 1.42.435 2.59 1.303 3.508.868.917 1.964 1.377 3.288 1.377zM27.678 24c-1.628 0-3.072-.35-4.33-1.05A7.566 7.566 0 0120.385 20c-.716-1.267-1.075-2.732-1.075-4.393 0-1.683.348-3.18 1.042-4.491.716-1.311 1.693-2.328 2.93-3.049 1.26-.743 2.735-1.114 4.428-1.114 1.585 0 2.985.35 4.2 1.049a7.36 7.36 0 012.833 2.884c.694 1.203 1.042 2.547 1.042 4.033 0 .24-.011.492-.033.754 0 .21-.007.427-.02.651a.18.18 0 01-.181.168H23.64c-.106 0-.19.09-.18.195.117 1.175.546 2.105 1.287 2.789.803.72 1.768 1.082 2.897 1.082.847 0 1.552-.186 2.116-.558.553-.37.97-.838 1.252-1.403a.188.188 0 01.167-.105h3.872c.122 0 .21.117.171.233-.31.937-.795 1.799-1.457 2.586a7.362 7.362 0 01-2.605 1.968c-1.02.48-2.181.72-3.483.72zm.032-13.638c-1.02 0-1.92.295-2.702.885-.733.533-1.218 1.336-1.454 2.408a.177.177 0 00.175.215h7.63a.177.177 0 00.178-.193c-.099-.981-.484-1.77-1.157-2.364-.716-.634-1.606-.951-2.67-.951zM45.807 24c-1.628 0-3.071-.35-4.33-1.049a7.566 7.566 0 01-2.963-2.95c-.716-1.268-1.074-2.732-1.074-4.394 0-1.682.347-3.18 1.041-4.49.717-1.312 1.693-2.328 2.93-3.05 1.26-.743 2.735-1.114 4.428-1.114 1.585 0 2.985.35 4.2 1.049a7.361 7.361 0 012.833 2.885c.694 1.202 1.042 2.546 1.042 4.032 0 .24-.011.492-.033.754 0 .21-.007.427-.02.651a.18.18 0 01-.181.169H41.77c-.106 0-.19.09-.18.194.117 1.175.546 2.105 1.287 2.789.803.721 1.769 1.082 2.897 1.082.847 0 1.552-.186 2.117-.558.552-.37.969-.838 1.251-1.402a.188.188 0 01.167-.105h3.873c.121 0 .209.117.17.232-.31.937-.795 1.8-1.457 2.587a7.362 7.362 0 01-2.605 1.967c-1.02.48-2.18.721-3.483.721zm.032-13.638c-1.02 0-1.92.295-2.702.885-.733.534-1.218 1.336-1.454 2.409a.177.177 0 00.175.214h7.63a.177.177 0 00.178-.193c-.099-.98-.484-1.769-1.157-2.364-.716-.634-1.606-.95-2.67-.95z" fill="#01090F"></path><ellipse cx="65.194" cy="20.713" rx="2.806" ry="2.825" fill="#2C71F0"></ellipse></svg>